
        <svg xmlns="http://www.w3.org/2000/svg" xmlns:xlink="http://www.w3.org/1999/xlink" version="1.1" width="3222.222222222222" 
        height="1516.0337505987243" viewBox="0 0 3222.222222222222 1516.0337505987243">
			<rect fill="#000000" width="3222.222222222222" height="1516.0337505987243"/>
			<g transform="scale(11.111111111111109) translate(10, 10)">
				<defs id="SvgjsDefs4349"><linearGradient id="SvgjsLinearGradient4354"><stop id="SvgjsStop4355" stop-color="#8f5e25" offset="0"></stop><stop id="SvgjsStop4356" stop-color="#fbf4a1" offset="0.5"></stop><stop id="SvgjsStop4357" stop-color="#8f5e25" offset="1"></stop></linearGradient><linearGradient id="SvgjsLinearGradient4358"><stop id="SvgjsStop4359" stop-color="#8f5e25" offset="0"></stop><stop id="SvgjsStop4360" stop-color="#fbf4a1" offset="0.5"></stop><stop id="SvgjsStop4361" stop-color="#8f5e25" offset="1"></stop></linearGradient></defs><g id="SvgjsG4350" featureKey="symbolFeature-0" transform="matrix(0.5625,0,0,0.5625,97.3125,-1.6875)" fill="url(#SvgjsLinearGradient4354)"><g xmlns="http://www.w3.org/2000/svg"><g><g><path d="M105.2,106.1H28.8c-0.5,0-1-0.4-1-1V28.8c0-0.5,0.4-1,1-1h76.3c0.5,0,1,0.4,1,1v76.3     C106.1,105.7,105.7,106.1,105.2,106.1z M29.8,104.2h74.3V29.8H29.8V104.2z"></path></g></g><g><g><path d="M99.2,100.2H34.8c-0.5,0-1-0.4-1-1V34.8c0-0.5,0.4-1,1-1h64.5c0.5,0,1,0.4,1,1v64.5C100.2,99.8,99.8,100.2,99.2,100.2z      M35.7,98.3h62.5V35.7H35.7V98.3z"></path></g></g><g><g><path d="M28.8,95.2h-8.5c-0.5,0-1-0.4-1-1V39.8c0-0.5,0.4-1,1-1h8.5c0.5,0,1,0.4,1,1v54.5C29.8,94.8,29.4,95.2,28.8,95.2z      M21.3,93.3h6.6V40.7h-6.6V93.3z"></path></g></g><g><g><g><path d="M20.3,48.3H4c-0.5,0-1-0.4-1-1c0-0.5,0.4-1,1-1h16.3c0.5,0,1,0.4,1,1C21.3,47.9,20.9,48.3,20.3,48.3z"></path></g></g><g><g><path d="M20.3,58.1H4c-0.5,0-1-0.4-1-1s0.4-1,1-1h16.3c0.5,0,1,0.4,1,1S20.9,58.1,20.3,58.1z"></path></g></g><g><g><path d="M20.3,68H4c-0.5,0-1-0.4-1-1s0.4-1,1-1h16.3c0.5,0,1,0.4,1,1S20.9,68,20.3,68z"></path></g></g><g><g><path d="M20.3,77.8H4c-0.5,0-1-0.4-1-1s0.4-1,1-1h16.3c0.5,0,1,0.4,1,1S20.9,77.8,20.3,77.8z"></path></g></g><g><g><path d="M20.3,87.7H4c-0.5,0-1-0.4-1-1c0-0.5,0.4-1,1-1h16.3c0.5,0,1,0.4,1,1C21.3,87.2,20.9,87.7,20.3,87.7z"></path></g></g></g><g><g><path d="M94.2,29.8H39.8c-0.5,0-1-0.4-1-1v-8.5c0-0.5,0.4-1,1-1h54.5c0.5,0,1,0.4,1,1v8.5C95.2,29.4,94.8,29.8,94.2,29.8z      M40.7,27.9h52.5v-6.6H40.7V27.9z"></path></g></g><g><g><g><path d="M86.7,21.3c-0.5,0-1-0.4-1-1V4c0-0.5,0.4-1,1-1c0.5,0,1,0.4,1,1v16.3C87.7,20.9,87.2,21.3,86.7,21.3z"></path></g></g><g><g><path d="M76.8,21.3c-0.5,0-1-0.4-1-1V4c0-0.5,0.4-1,1-1s1,0.4,1,1v16.3C77.8,20.9,77.4,21.3,76.8,21.3z"></path></g></g><g><g><path d="M67,21.3c-0.5,0-1-0.4-1-1V4c0-0.5,0.4-1,1-1s1,0.4,1,1v16.3C68,20.9,67.5,21.3,67,21.3z"></path></g></g><g><g><path d="M57.2,21.3c-0.5,0-1-0.4-1-1V4c0-0.5,0.4-1,1-1s1,0.4,1,1v16.3C58.1,20.9,57.7,21.3,57.2,21.3z"></path></g></g><g><g><path d="M47.3,21.3c-0.5,0-1-0.4-1-1V4c0-0.5,0.4-1,1-1c0.5,0,1,0.4,1,1v16.3C48.3,20.9,47.9,21.3,47.3,21.3z"></path></g></g></g><g><g><path d="M113.7,95.2h-8.5c-0.5,0-1-0.4-1-1V39.8c0-0.5,0.4-1,1-1h8.5c0.5,0,1,0.4,1,1v54.5C114.7,94.8,114.2,95.2,113.7,95.2z      M106.1,93.3h6.6V40.7h-6.6V93.3z"></path></g></g><g><g><g><path d="M130,87.7h-16.3c-0.5,0-1-0.4-1-1c0-0.5,0.4-1,1-1H130c0.5,0,1,0.4,1,1C131,87.2,130.6,87.7,130,87.7z"></path></g></g><g><g><path d="M130,77.8h-16.3c-0.5,0-1-0.4-1-1s0.4-1,1-1H130c0.5,0,1,0.4,1,1S130.6,77.8,130,77.8z"></path></g></g><g><g><path d="M130,68h-16.3c-0.5,0-1-0.4-1-1s0.4-1,1-1H130c0.5,0,1,0.4,1,1S130.6,68,130,68z"></path></g></g><g><g><path d="M130,58.1h-16.3c-0.5,0-1-0.4-1-1s0.4-1,1-1H130c0.5,0,1,0.4,1,1S130.6,58.1,130,58.1z"></path></g></g><g><g><path d="M130,48.3h-16.3c-0.5,0-1-0.4-1-1c0-0.5,0.4-1,1-1H130c0.5,0,1,0.4,1,1C131,47.9,130.6,48.3,130,48.3z"></path></g></g></g><g><g><path d="M94.2,114.7H39.8c-0.5,0-1-0.4-1-1v-8.5c0-0.5,0.4-1,1-1h54.5c0.5,0,1,0.4,1,1v8.5C95.2,114.2,94.8,114.7,94.2,114.7z      M40.7,112.7h52.5v-6.6H40.7V112.7z"></path></g></g><g><g><g><path d="M47.3,131c-0.5,0-1-0.4-1-1v-16.3c0-0.5,0.4-1,1-1c0.5,0,1,0.4,1,1V130C48.3,130.6,47.9,131,47.3,131z"></path></g></g><g><g><path d="M57.2,131c-0.5,0-1-0.4-1-1v-16.3c0-0.5,0.4-1,1-1s1,0.4,1,1V130C58.1,130.6,57.7,131,57.2,131z"></path></g></g><g><g><path d="M67,131c-0.5,0-1-0.4-1-1v-16.3c0-0.5,0.4-1,1-1s1,0.4,1,1V130C68,130.6,67.5,131,67,131z"></path></g></g><g><g><path d="M76.8,131c-0.5,0-1-0.4-1-1v-16.3c0-0.5,0.4-1,1-1s1,0.4,1,1V130C77.8,130.6,77.4,131,76.8,131z"></path></g></g><g><g><path d="M86.7,131c-0.5,0-1-0.4-1-1v-16.3c0-0.5,0.4-1,1-1c0.5,0,1,0.4,1,1V130C87.7,130.6,87.2,131,86.7,131z"></path></g></g></g><g><g><path d="M46.3,49.4H34.7c-0.5,0-1-0.4-1-1s0.4-1,1-1h10.6v-5.7c0-0.5,0.4-1,1-1h8v-6c0-0.5,0.4-1,1-1c0.5,0,1,0.4,1,1v7     c0,0.5-0.4,1-1,1h-8v5.7C47.3,49,46.9,49.4,46.3,49.4z"></path></g></g><g><g><path d="M54.1,65c-0.3,0-0.5-0.1-0.7-0.3c-0.4-0.4-0.4-1,0-1.4L66,50.7V34.7c0-0.5,0.4-1,1-1s1,0.4,1,1v16.3     c0,0.3-0.1,0.5-0.3,0.7L54.8,64.7C54.6,64.9,54.4,65,54.1,65z"></path></g></g><g><g><path d="M56.5,76.2H34.7c-0.5,0-1-0.4-1-1s0.4-1,1-1h21.4l11.7-11.7c0.4-0.4,1-0.4,1.4,0c0.4,0.4,0.4,1,0,1.4l-12,12     C57,76.1,56.8,76.2,56.5,76.2z"></path></g></g><g><g><path d="M64.4,100.2c-0.5,0-1-0.4-1-1v-18c0-0.3,0.1-0.5,0.3-0.7l21.4-21.4c0.4-0.4,1-0.4,1.4,0c0.4,0.4,0.4,1,0,1.4L65.4,81.7     v17.6C65.4,99.8,64.9,100.2,64.4,100.2z"></path></g></g><g><g><path d="M89.2,100.2c-0.5,0-1-0.4-1-1v-10L79.9,81c-0.4-0.4-0.4-1,0-1.4c0.4-0.4,1-0.4,1.4,0l8.5,8.5c0.2,0.2,0.3,0.4,0.3,0.7     v10.4C90.1,99.8,89.7,100.2,89.2,100.2z"></path></g></g><g><g><path d="M99.3,48.3H80.6c-0.5,0-1-0.4-1-1c0-0.5,0.4-1,1-1h18.6c0.5,0,1,0.4,1,1C100.2,47.9,99.8,48.3,99.3,48.3z"></path></g></g><g><g><path d="M52.1,70.1c-2.2,0-3.9-1.8-3.9-3.9c0-2.2,1.8-3.9,3.9-3.9c2.2,0,3.9,1.8,3.9,3.9C56,68.3,54.2,70.1,52.1,70.1z      M52.1,64.2c-1.1,0-2,0.9-2,2s0.9,2,2,2c1.1,0,2-0.9,2-2S53.2,64.2,52.1,64.2z"></path></g></g><g><g><path d="M70.3,64.7c-2.2,0-3.9-1.8-3.9-3.9c0-2.2,1.8-3.9,3.9-3.9s3.9,1.8,3.9,3.9C74.2,63,72.4,64.7,70.3,64.7z M70.3,58.8     c-1.1,0-2,0.9-2,2c0,1.1,0.9,2,2,2s2-0.9,2-2C72.2,59.7,71.3,58.8,70.3,58.8z"></path></g></g><g><g><path d="M78.7,82.1c-2.2,0-3.9-1.8-3.9-3.9s1.8-3.9,3.9-3.9c2.2,0,3.9,1.8,3.9,3.9S80.9,82.1,78.7,82.1z M78.7,76.2     c-1.1,0-2,0.9-2,2c0,1.1,0.9,2,2,2c1.1,0,2-0.9,2-2C80.7,77.1,79.8,76.2,78.7,76.2z"></path></g></g></g></g><g id="SvgjsG4351" featureKey="nameFeature-0" transform="matrix(0.635920841966049,0,0,0.635920841966049,-0.8813866896552964,90.75772876621498)" fill="url(#SvgjsLinearGradient4358)"><path d="M13.027 40.39063 c-6.0547 0 -10.781 -2.9102 -11.641 -8.2031 l6.0547 -1.3867 c0.39063 3.1641 2.7148 4.8047 5.8203 4.8047 c2.3828 0 4.2773 -1.0547 4.2578 -3.4375 c-0.019531 -2.6563 -3.1445 -3.4961 -6.582 -4.5508 c-4.1406 -1.2891 -8.5742 -2.8125 -8.5742 -8.0078 c0 -5.2539 4.2969 -8.2227 9.9609 -8.2227 c4.9609 0 9.9609 2.0117 11.094 7.4219 l-5.6641 1.4063 c-0.52734 -2.8125 -2.4219 -4.043 -5.0781 -4.043 c-2.3633 0 -4.375 0.97656 -4.375 3.3008 c0 2.168 2.7734 2.8906 5.9766 3.8477 c4.2578 1.2891 9.2969 2.9297 9.2969 8.5547 c0 5.9961 -5.0195 8.5156 -10.547 8.5156 z M46.260234374999996 16.934 l-10.469 0 l0 6.4063 l9.2773 0 l0 5.0977 l-9.2773 0 l0 6.3867 l10.469 0 l0 5.1758 l-16.367 0 l0 -28.223 l16.367 0 l0 5.1563 z M68.10578125 40 l-7.3438 -12.422 l-1.6992 0 l0 12.422 l-5.8594 0 l0 -28.223 l10.234 0 c6.3867 0 9.082 3.7695 9.082 8.4375 c0 3.7891 -2.1484 6.25 -5.9766 7.0703 l8.4961 12.715 l-6.9336 0 z M59.06248125 16.641 l0 6.7383 l3.457 0 c3.125 0 4.3945 -1.3281 4.3945 -3.3594 c0 -2.0117 -1.2695 -3.3789 -4.3945 -3.3789 l-3.457 0 z M92.450796875 40.39063 c-8.1445 0 -14.141 -5.625 -14.141 -14.434 c0 -8.9258 6.1328 -14.57 14.434 -14.57 c5.4492 0 9.9609 2.4023 12.422 6.6406 l-5.1367 2.7344 c-1.4844 -2.8906 -4.1406 -4.2773 -7.2852 -4.2773 c-4.8828 0 -8.5547 3.3594 -8.5547 9.3359 c0 5.7617 3.4375 9.4727 8.7695 9.4727 c3.6133 0 6.9336 -1.7969 7.7344 -5.918 l-7.7148 0 l0 -4.707 l13.262 0 l0 15.332 l-4.6094 0 l0 -3.9063 c-1.8164 2.6758 -4.8633 4.2969 -9.1797 4.2969 z M113.2226125 40 l0 -28.223 l5.8594 0 l0 28.223 l-5.8594 0 z M139.775046875 40.39063 c-8.3008 0 -14.434 -5.6641 -14.434 -14.512 c0 -8.8672 6.1328 -14.492 14.434 -14.492 c8.2813 0 14.414 5.625 14.414 14.492 c0 8.8477 -6.1328 14.512 -14.414 14.512 z M139.775046875 35.0195 c4.8633 0 8.5938 -3.418 8.5938 -9.1406 c0 -5.7031 -3.7305 -9.1016 -8.5938 -9.1016 s-8.5938 3.3984 -8.5938 9.1016 c0 5.7227 3.7305 9.1406 8.5938 9.1406 z M171.787065625 40 l0 -28.223 l10.215 0 c9.0039 0 13.457 5.6641 13.457 14.102 c0 8.457 -4.4531 14.121 -13.457 14.121 l-10.215 0 z M177.646465625 34.8242 l4.0625 0 c5.1953 0 7.5781 -3.2422 7.5781 -8.9453 s-2.3828 -8.9453 -7.5781 -8.9453 l-4.0625 0 l0 17.891 z M214.355125 40.39063 c-8.3008 0 -14.434 -5.6641 -14.434 -14.512 c0 -8.8672 6.1328 -14.492 14.434 -14.492 c8.2813 0 14.414 5.625 14.414 14.492 c0 8.8477 -6.1328 14.512 -14.414 14.512 z M214.355125 35.0195 c4.8633 0 8.5938 -3.418 8.5938 -9.1406 c0 -5.7031 -3.7305 -9.1016 -8.5938 -9.1016 s-8.5938 3.3984 -8.5938 9.1016 c0 5.7227 3.7305 9.1406 8.5938 9.1406 z M267.412015625 40 l-5.8398 0 l-1.8555 -21.27 l-7.1484 21.27 l-3.7891 0 l-7.1484 -21.27 l-1.875 21.27 l-5.8594 0 l2.3633 -28.223 l8.3594 0 l6.0156 17.715 l6.0938 -17.715 l8.3594 0 z M275.60548125 9.140999999999998 l5.1172 -7.1875 l2.7734 1.9727 l-4.4336 5.2148 l-3.457 0 z M274.45308125 40 l0 -28.223 l5.8594 0 l0 28.223 l-5.8594 0 z M307.783515625 11.777000000000001 l5.8398 0 l0 28.223 l-6.7773 0 l-12.5 -20.176 l0 20.176 l-5.8398 0 l0 -28.223 l6.6992 0 l12.578 20.059 l0 -20.059 z M334.04259375 40.39063 c-8.1445 0 -14.141 -5.625 -14.141 -14.434 c0 -8.9258 6.1328 -14.57 14.434 -14.57 c5.4492 0 9.9609 2.4023 12.422 6.6406 l-5.1367 2.7344 c-1.4844 -2.8906 -4.1406 -4.2773 -7.2852 -4.2773 c-4.8828 0 -8.5547 3.3594 -8.5547 9.3359 c0 5.7617 3.4375 9.4727 8.7695 9.4727 c3.6133 0 6.9336 -1.7969 7.7344 -5.918 l-7.7148 0 l0 -4.707 l13.262 0 l0 15.332 l-4.6094 0 l0 -3.9063 c-1.8164 2.6758 -4.8633 4.2969 -9.1797 4.2969 z M365.264109375 40.39063 c-6.1914 0 -11.035 -3.1641 -11.035 -10.273 l0 -18.34 l5.8594 0 l0 17.539 c0 4.2969 2.2852 5.8984 5.1758 5.8984 c2.9102 0 5.2148 -1.6211 5.2148 -5.8984 l0 -17.539 l5.8594 0 l0 18.34 c0 7.1094 -4.8633 10.273 -11.074 10.273 z M400.3325 16.934 l-10.469 0 l0 6.4063 l9.2773 0 l0 5.0977 l-9.2773 0 l0 6.3867 l10.469 0 l0 5.1758 l-16.367 0 l0 -28.223 l16.367 0 l0 5.1563 z M412.412146875 34.8242 l13.555 0 l0 5.1758 l-20.566 0 l0 -4.6289 l13.379 -18.438 l-13.359 0 l0 -5.1563 l20.293 0 l0 4.6289 z"></path></g>
			</g>
		</svg>
	